# xmcd
#
# Track frame offsets: 
#        150
#        17441
#        34239
#        49561
#        67039
#        80447
#        90485
#        104152
#        121177
#        148936
#        162504
#        181279
#        198241
#
# Disc length: 2880 seconds
#
# Revision: 0
# Processed by: cddbd v1.5.2PL0 Copyright (c) Steve Scherf et al.
# Submitted via: ExactAudioCopyFreeDBPlugin 1.0
#
DISCID=af0b3e0d
DTITLE=Peoples Temper - Statement of Liberty
DYEAR=2013
DGENRE=Rock
TTITLE0=Liberty
TTITLE1=The Wave
TTITLE2=Liquor King
TTITLE3=Get Ready
TTITLE4=Bring Me Down
TTITLE5=Back To The City
TTITLE6=Fix Me Up
TTITLE7=Frisco Bay
TTITLE8=Come With Us
TTITLE9=Monumental
TTITLE10=St. Barths
TTITLE11=Once Upon A Time
TTITLE12=All Evil Is Gone
EXTD=
EXTT0=
EXTT1=
EXTT2=
EXTT3=
EXTT4=
EXTT5=
EXTT6=
EXTT7=
EXTT8=
EXTT9=
EXTT10=
EXTT11=
EXTT12=
PLAYORDER=
